<svg xmlns="http://www.w3.org/2000/svg"
     viewBox="-20 -11.16 283.53 77.03"
     width="243.53" height="37.03">
    <g>
        <path d="M0 45.26L0 9.47L4.86 9.47L23.66 37.57L23.66 9.47L28.20 9.47L28.20 45.26L23.34 45.26L4.54 17.14L4.54 45.26L0 45.26ZM34.72 27.83Q34.72 18.92 39.50 13.88Q44.29 8.84 51.86 8.84Q56.81 8.84 60.79 11.21Q64.77 13.57 66.86 17.81Q68.95 22.05 68.95 27.42Q68.95 32.86 66.75 37.16Q64.55 41.46 60.52 43.66Q56.49 45.87 51.83 45.87Q46.78 45.87 42.80 43.43Q38.82 40.99 36.77 36.77Q34.72 32.54 34.72 27.83M39.60 27.91Q39.60 34.38 43.08 38.10Q46.56 41.82 51.81 41.82Q57.15 41.82 60.61 38.06Q64.06 34.30 64.06 27.39Q64.06 23.02 62.59 19.76Q61.11 16.50 58.26 14.71Q55.42 12.92 51.88 12.92Q46.85 12.92 43.23 16.37Q39.60 19.82 39.60 27.91ZM89.75 45.26L89.75 9.47L94.48 9.47L94.48 45.26L89.75 45.26ZM102.69 45.26L102.69 9.47L109.81 9.47L118.29 34.81Q119.46 38.35 120.00 40.11Q120.61 38.16 121.90 34.38L130.47 9.47L136.84 9.47L136.84 45.26L132.28 45.26L132.28 15.31L121.88 45.26L117.60 45.26L107.25 14.79L107.25 45.26L102.69 45.26ZM140.55 45.26L154.30 9.47L159.40 9.47L174.05 45.26L168.65 45.26L164.48 34.42L149.51 34.42L145.58 45.26L140.55 45.26M150.88 30.57L163.01 30.57L159.28 20.65Q157.57 16.14 156.74 13.23Q156.05 16.67 154.81 20.07L150.88 30.57ZM194.58 31.23L194.58 27.03L209.74 27.00L209.74 40.28Q206.25 43.07 202.54 44.47Q198.83 45.87 194.92 45.87Q189.65 45.87 185.34 43.62Q181.03 41.36 178.83 37.08Q176.64 32.81 176.64 27.54Q176.64 22.31 178.82 17.79Q181.01 13.26 185.11 11.06Q189.21 8.86 194.56 8.86Q198.44 8.86 201.57 10.12Q204.71 11.38 206.49 13.62Q208.28 15.87 209.20 19.48L204.93 20.65Q204.13 17.92 202.93 16.36Q201.73 14.79 199.51 13.85Q197.29 12.92 194.58 12.92Q191.33 12.92 188.96 13.90Q186.60 14.89 185.14 16.50Q183.69 18.12 182.89 20.04Q181.52 23.36 181.52 27.25Q181.52 32.03 183.17 35.25Q184.81 38.48 187.96 40.04Q191.11 41.60 194.65 41.60Q197.73 41.60 200.66 40.42Q203.59 39.23 205.10 37.89L205.10 31.23L194.58 31.23ZM216.82 45.26L216.82 9.47L242.70 9.47L242.70 13.70L221.56 13.70L221.56 24.66L241.36 24.66L241.36 28.86L221.56 28.86L221.56 41.04L243.53 41.04L243.53 45.26L216.82 45.26Z"/>
    </g>
</svg>
